<svg width="320" height="87.08919286727905" viewBox="0 0 320 87.08919286727905" class="css-1j8o68f"><defs id="SvgjsDefs2547"></defs><g id="SvgjsG2548" featurekey="symbolFeature-0" transform="matrix(1.5625,0,0,1.5625,-1.5625,-7.968749850988388)" fill="#111111"><g xmlns="http://www.w3.org/2000/svg"><path d="M36.7,25.1c1.4,0,2.6,1.2,2.6,2.8c0,0.6,0.4,1,1,1s1-0.4,1-1c0-2.3-1.5-4.2-3.6-4.6V22c0-0.6-0.4-1-1-1s-1,0.4-1,1v1.3   c-2.1,0.5-3.6,2.4-3.6,4.6c0,2.6,2.1,4.8,4.6,4.8c1.4,0,2.6,1.2,2.6,2.8c0,1.5-1.2,2.8-2.6,2.8c0,0,0,0,0,0c0,0,0,0,0,0   c-1.4,0-2.6-1.2-2.6-2.8c0-0.6-0.4-1-1-1s-1,0.4-1,1c0,2.3,1.5,4.2,3.6,4.6v1.3c0,0.6,0.4,1,1,1s1-0.4,1-1v-1.3   c2-0.5,3.6-2.4,3.6-4.6c0-2.6-2.1-4.8-4.6-4.8c-1.4,0-2.6-1.2-2.6-2.8S35.2,25.1,36.7,25.1z"></path><path d="M49.1,43.8c-1.9,1.9-4.1,3.3-6.2,4.1c1.7,4.5,4.1,9.4,4.8,10.5c1.5,2.3,4.6,3.2,7.1,1.7c2.4-1.5,3.2-4.7,1.7-7.1   C55.8,51.9,52.4,47.4,49.1,43.8z"></path><path d="M64.7,5.4c-0.2-0.2-0.5-0.3-0.8-0.3l-6.2,0.3c-0.6,0-1,0.5-1,1s0.5,1,1,1l3.4-0.1L46.7,20c-3.2-2.8-7.7-4.3-12.3-3.7   c-4.5,0.6-8.4,3.2-10.8,7l-2.4-1.1c0.2-0.5,0.3-1.1,0.3-1.6c0-2.4-2-4.4-4.4-4.4s-4.4,2-4.4,4.4c0,1.1,0.5,2.2,1.2,3L7.3,32   c-0.6-0.3-1.2-0.5-1.9-0.5c-2.4,0-4.4,2-4.4,4.4s2,4.4,4.4,4.4s4.4-2,4.4-4.4c0-1-0.3-1.9-0.9-2.6l6.8-8.6c0.5,0.2,1,0.3,1.5,0.3   c1.1,0,2.1-0.4,2.9-1.1l2.6,1.2C16.5,37.9,29.9,52,43.2,45.6c5-2.4,8.7-7.5,8.8-13.7c0.1-4-1.4-7.7-3.9-10.5l14.8-13l-0.2,3.8   c0,0.6,0.4,1,1,1c0.5,0,1-0.4,1-1L65,6.2C65,5.9,64.9,5.6,64.7,5.4z M5.4,38.3c-1.3,0-2.4-1.1-2.4-2.4s1.1-2.4,2.4-2.4   c1.3,0,2.4,1.1,2.4,2.4S6.7,38.3,5.4,38.3z M14.8,20.6c0-1.3,1.1-2.4,2.4-2.4s2.4,1.1,2.4,2.4S18.4,23,17.1,23S14.8,21.9,14.8,20.6   z M42.4,43.8c-11.9,5.7-23.9-7.4-17.6-18.7c2.1-3.7,5.7-6.2,9.9-6.8c8.3-1.2,15.5,5.3,15.4,13.5C49.9,37.4,46.6,41.8,42.4,43.8z"></path></g></g></svg>